<svg xmlns="http://www.w3.org/2000/svg" width="200" height="200" viewBox="0 0 200 200">
  <!-- Background circle -->
  <circle cx="100" cy="100" r="95" fill="#2d3a59" stroke="#e75a7c" stroke-width="5"/>
  
  <!-- Swirl pattern inspired by the image -->
  <path d="M100,30 C130,30 160,50 160,100 C160,150 130,170 100,170 C70,170 40,150 40,100 C40,50 70,30 100,30 Z" fill="none" stroke="#7b68ee" stroke-width="4" opacity="0.7"/>
  <path d="M100,40 C125,40 150,60 150,100 C150,140 125,160 100,160 C75,160 50,140 50,100 C50,60 75,40 100,40 Z" fill="none" stroke="#4682b4" stroke-width="4" opacity="0.7"/>
  <path d="M100,50 C120,50 140,65 140,100 C140,135 120,150 100,150 C80,150 60,135 60,100 C60,65 80,50 100,50 Z" fill="none" stroke="#e75a7c" stroke-width="4" opacity="0.7"/>
  
  <!-- Abstract face representation -->
  <circle cx="80" cy="85" r="8" fill="#ffffff" opacity="0.9"/>
  <circle cx="120" cy="85" r="8" fill="#ffffff" opacity="0.9"/>
  <path d="M75,120 Q100,140 125,120" fill="none" stroke="#ffffff" stroke-width="3" stroke-linecap="round"/>
</svg>